<svg width="17" height="18" viewBox="0 0 17 18" fill="none" xmlns="http://www.w3.org/2000/svg">
<path d="M12.4306 14.9858L12.6127 14.4394L12.353 14.3528L12.1219 14.4995L12.4306 14.9858ZM14.8138 12.6001L14.3272 12.2919L14.1809 12.5229L14.2674 12.7822L14.8138 12.6001ZM16.0064 16.1777L15.8242 16.7242L16.9171 17.0885L16.5528 15.9956L16.0064 16.1777ZM8.32063 16.7529C9.94491 16.7529 11.4613 16.2832 12.7392 15.4721L12.1219 14.4995C11.023 15.1969 9.71989 15.6009 8.32063 15.6009V16.7529ZM0.064625 8.49689C0.064625 13.0566 3.76096 16.7529 8.32063 16.7529V15.6009C4.39719 15.6009 1.21663 12.4203 1.21663 8.49689H0.064625ZM8.32063 0.240894C3.76096 0.240894 0.064625 3.93723 0.064625 8.49689H1.21663C1.21663 4.57346 4.39719 1.39289 8.32063 1.39289V0.240894ZM16.5766 8.49689C16.5766 3.93723 12.8803 0.240894 8.32063 0.240894V1.39289C12.2441 1.39289 15.4246 4.57346 15.4246 8.49689H16.5766ZM15.3004 12.9083C16.1088 11.6318 16.5766 10.1181 16.5766 8.49689H15.4246C15.4246 9.89352 15.0222 11.1944 14.3272 12.2919L15.3004 12.9083ZM14.2674 12.7822L15.4599 16.3599L16.5528 15.9956L15.3602 12.4179L14.2674 12.7822ZM16.1885 15.6313L12.6127 14.4394L12.2484 15.5322L15.8242 16.7242L16.1885 15.6313Z" fill="black"/>
</svg>
