<svg width="41" height="41" viewBox="0 0 41 41" fill="none" xmlns="http://www.w3.org/2000/svg">
<path d="M24.9905 13.546C24.9905 13.4449 24.9504 13.3479 24.8789 13.2764C24.8073 13.2048 24.7104 13.1647 24.6092 13.1647H22.7026C21.7426 13.1168 20.8026 13.451 20.0881 14.094C19.3736 14.737 18.9427 15.6367 18.8895 16.5965V18.6556H16.9829C16.8817 18.6556 16.7848 18.6958 16.7132 18.7673C16.6417 18.8388 16.6016 18.9358 16.6016 19.037V21.0198C16.6016 21.1209 16.6417 21.2179 16.7132 21.2894C16.7848 21.3609 16.8817 21.4011 16.9829 21.4011H18.8895V26.5108C18.8895 26.6119 18.9296 26.7089 19.0012 26.7804C19.0727 26.8519 19.1697 26.8921 19.2708 26.8921H21.5587C21.6598 26.8921 21.7568 26.8519 21.8283 26.7804C21.8998 26.7089 21.94 26.6119 21.94 26.5108V21.4011H23.9381C24.0229 21.4023 24.1057 21.3753 24.1734 21.3241C24.241 21.273 24.2898 21.2008 24.3118 21.1189L24.8609 19.1361C24.8761 19.0798 24.8781 19.0207 24.8669 18.9634C24.8556 18.9062 24.8314 18.8523 24.796 18.8059C24.7606 18.7594 24.7151 18.7218 24.6629 18.6957C24.6107 18.6697 24.5532 18.656 24.4948 18.6556H21.94V16.5965C21.959 16.4078 22.0476 16.2328 22.1886 16.1059C22.3297 15.979 22.5129 15.9092 22.7026 15.9102H24.6092C24.7104 15.9102 24.8073 15.87 24.8789 15.7985C24.9504 15.727 24.9905 15.63 24.9905 15.5288V13.546Z" fill="#1B1819"/>
</svg>
