<svg width="41" height="41" viewBox="0 0 41 41" fill="none" xmlns="http://www.w3.org/2000/svg">
<path d="M17.3298 15.4941C17.3296 15.8477 17.1857 16.1867 16.9298 16.4366C16.6738 16.6866 16.3268 16.8269 15.965 16.8267C15.6032 16.8265 15.2563 16.6859 15.0006 16.4357C14.7449 16.1855 14.6014 15.8464 14.6016 15.4927C14.6017 15.1391 14.7456 14.8001 15.0016 14.5502C15.2575 14.3003 15.6046 14.16 15.9664 14.1602C16.3281 14.1603 16.675 14.301 16.9307 14.5511C17.1864 14.8013 17.33 15.1405 17.3298 15.4941ZM17.3707 17.814H14.6425V26.1602H17.3707V17.814ZM21.6813 17.814H18.9667V26.1602H21.654V21.7804C21.654 19.3405 24.9074 19.1139 24.9074 21.7804V26.1602H27.6016V20.8738C27.6016 16.7607 22.7862 16.914 21.654 18.9339L21.6813 17.814Z" fill="#1B1819"/>
</svg>
