<svg width="19" height="27" viewBox="0 0 19 27" fill="none" xmlns="http://www.w3.org/2000/svg">
<path d="M0 7.68022C4.18589e-08 6.72279 0.159571 5.79353 0.478713 4.89242C0.797855 4.01009 1.26718 3.22162 1.88669 2.52702C2.5062 1.83242 3.2759 1.27861 4.19578 0.865604C5.11566 0.452597 6.17633 0.246094 7.37781 0.246094C8.57928 0.246094 9.63996 0.452597 10.5598 0.865604C11.4797 1.27861 12.2494 1.83242 12.8689 2.52702C13.4884 3.22162 13.9578 4.01009 14.2769 4.89242C14.596 5.79353 14.7556 6.7228 14.7556 7.68022C14.7556 8.63765 14.596 9.55753 14.2769 10.4399C13.9578 11.341 13.4884 12.1482 12.8689 12.8616C12.2494 13.575 11.4797 14.1381 10.5598 14.5512C9.63996 14.9642 8.57928 15.1707 7.37781 15.1707C6.17633 15.1707 5.11566 14.9642 4.19578 14.5512C3.2759 14.1381 2.5062 13.575 1.88669 12.8616C1.26718 12.1482 0.797854 11.341 0.478713 10.4399C0.159571 9.55752 -4.18419e-08 8.63765 0 7.68022ZM2.67516 7.68022C2.67516 8.50623 2.86289 9.25716 3.23835 9.93299C3.63258 10.6276 4.177 11.1814 4.87161 11.5944C5.58498 12.0262 6.42038 12.2421 7.37781 12.2421C8.33523 12.2421 9.16125 12.0262 9.85585 11.5944C10.5692 11.1814 11.1136 10.6276 11.4891 9.93299C11.8833 9.25716 12.0805 8.50624 12.0805 7.68022C12.0805 6.87298 11.8833 6.12206 11.4891 5.42745C11.1136 4.75163 10.5692 4.20721 9.85585 3.7942C9.16125 3.38119 8.33523 3.17469 7.37781 3.17469C6.42038 3.17469 5.58498 3.38119 4.87161 3.7942C4.177 4.20721 3.63258 4.75163 3.23835 5.42745C2.86289 6.12206 2.67516 6.87298 2.67516 7.68022Z" fill="#1B1819"/>
<path d="M0.394234 17.4943H14.3614V20.3665L0.394233 20.3665L0.394234 17.4943Z" fill="#1B1819"/>
</svg>
