<svg width="137" height="27" viewBox="0 0 137 27" fill="none" xmlns="http://www.w3.org/2000/svg">
<path d="M0 7.68022C4.18589e-08 6.72279 0.159571 5.79353 0.478713 4.89242C0.797855 4.01009 1.26718 3.22162 1.88669 2.52702C2.5062 1.83242 3.2759 1.27861 4.19578 0.865604C5.11566 0.452597 6.17633 0.246094 7.37781 0.246094C8.57928 0.246094 9.63996 0.452597 10.5598 0.865604C11.4797 1.27861 12.2494 1.83242 12.8689 2.52702C13.4884 3.22162 13.9578 4.01009 14.2769 4.89242C14.596 5.79353 14.7556 6.7228 14.7556 7.68022C14.7556 8.63765 14.596 9.55753 14.2769 10.4399C13.9578 11.341 13.4884 12.1482 12.8689 12.8616C12.2494 13.575 11.4797 14.1381 10.5598 14.5512C9.63996 14.9642 8.57928 15.1707 7.37781 15.1707C6.17633 15.1707 5.11566 14.9642 4.19578 14.5512C3.2759 14.1381 2.5062 13.575 1.88669 12.8616C1.26718 12.1482 0.797854 11.341 0.478713 10.4399C0.159571 9.55752 -4.18419e-08 8.63765 0 7.68022ZM2.67516 7.68022C2.67516 8.50623 2.86289 9.25716 3.23835 9.93299C3.63258 10.6276 4.177 11.1814 4.87161 11.5944C5.58498 12.0262 6.42038 12.2421 7.37781 12.2421C8.33523 12.2421 9.16125 12.0262 9.85585 11.5944C10.5692 11.1814 11.1136 10.6276 11.4891 9.93299C11.8833 9.25716 12.0805 8.50624 12.0805 7.68022C12.0805 6.87298 11.8833 6.12206 11.4891 5.42745C11.1136 4.75163 10.5692 4.20721 9.85585 3.7942C9.16125 3.38119 8.33523 3.17469 7.37781 3.17469C6.42038 3.17469 5.58498 3.38119 4.87161 3.7942C4.177 4.20721 3.63258 4.75163 3.23835 5.42745C2.86289 6.12206 2.67516 6.87298 2.67516 7.68022Z" fill="#1B1819"/>
<path d="M0.394234 17.4943H14.3614V20.3665L0.394233 20.3665L0.394234 17.4943Z" fill="#1B1819"/>
<path d="M37.5744 20.7552C36.0163 20.7552 34.674 20.483 33.5476 19.9386C32.44 19.3941 31.5483 18.6526 30.8725 17.7139C30.2154 16.7753 29.7648 15.724 29.5208 14.5601L32.196 13.1803C32.4025 14.194 32.7216 15.0763 33.1534 15.8273C33.6039 16.5594 34.1859 17.1226 34.8993 17.5168C35.6314 17.9111 36.5138 18.1082 37.5463 18.1082C38.4474 18.1082 39.2077 17.9674 39.8272 17.6858C40.4655 17.3854 40.9536 17.0006 41.2915 16.5312C41.6482 16.0431 41.8265 15.5081 41.8265 14.9261C41.8265 14.4193 41.7139 13.9687 41.4886 13.5745C41.2633 13.1803 40.9348 12.8423 40.503 12.5607C40.0713 12.2791 39.5362 12.0351 38.8979 11.8286C38.2597 11.6221 37.5369 11.4437 36.7296 11.2936C35.8098 11.1246 34.965 10.8899 34.1953 10.5896C33.4256 10.2704 32.7592 9.8762 32.196 9.40687C31.6328 8.91877 31.1916 8.36497 30.8725 7.74546C30.5721 7.10717 30.4219 6.36564 30.4219 5.52085C30.4219 4.46956 30.7035 3.54968 31.2667 2.76121C31.8487 1.97274 32.6465 1.36262 33.6603 0.930839C34.674 0.480286 35.8379 0.25501 37.152 0.25501C38.9543 0.25501 40.4843 0.68679 41.7421 1.55035C42.9998 2.39514 43.9103 3.606 44.4735 5.18293L42.1081 6.59091C41.6951 5.38944 41.0662 4.47895 40.2214 3.85944C39.3766 3.22115 38.3347 2.90201 37.0957 2.90201C36.4199 2.90201 35.791 3.00526 35.209 3.21177C34.6458 3.3995 34.1859 3.68109 33.8292 4.05655C33.4913 4.43201 33.3223 4.90134 33.3223 5.46453C33.3223 5.91508 33.4256 6.3187 33.6321 6.67539C33.8574 7.03208 34.1765 7.35122 34.5895 7.63282C35.0213 7.89564 35.5563 8.13969 36.1946 8.36497C36.8329 8.57147 37.5744 8.7592 38.4192 8.92816C39.4705 9.13466 40.3904 9.40687 41.1789 9.74479C41.9861 10.0827 42.6619 10.4863 43.2064 10.9556C43.7508 11.425 44.1544 11.9788 44.4172 12.6171C44.6988 13.2553 44.8396 13.9781 44.8396 14.7853C44.8396 15.8742 44.5392 16.8692 43.9385 17.7703C43.3565 18.6714 42.5211 19.3941 41.4323 19.9386C40.3622 20.483 39.0763 20.7552 37.5744 20.7552Z" fill="#1B1819"/>
<path d="M54.398 20.7552C53.4406 20.7552 52.5113 20.5956 51.6102 20.2765C50.7279 19.9573 49.9394 19.488 49.2448 18.8685C48.5502 18.249 47.9964 17.4793 47.5834 16.5594C47.1704 15.6395 46.9639 14.5788 46.9639 13.3774C46.9639 12.1759 47.1704 11.1152 47.5834 10.1953C47.9964 9.27546 48.5502 8.50576 49.2448 7.88625C49.9394 7.26674 50.7279 6.79742 51.6102 6.47827C52.5113 6.15913 53.4406 5.99956 54.398 5.99956C55.3554 5.99956 56.2753 6.15913 57.1577 6.47827C58.0588 6.79742 58.866 7.26674 59.5794 7.88625C60.2928 8.50576 60.8559 9.27546 61.269 10.1953C61.682 11.1152 61.8885 12.1759 61.8885 13.3774C61.8885 14.5788 61.682 15.6395 61.269 16.5594C60.8559 17.4793 60.2928 18.249 59.5794 18.8685C58.866 19.488 58.0588 19.9573 57.1577 20.2765C56.2753 20.5956 55.3554 20.7552 54.398 20.7552ZM54.398 18.08C55.224 18.08 55.975 17.8923 56.6508 17.5168C57.3454 17.1226 57.8992 16.5782 58.3122 15.8836C58.744 15.1702 58.9599 14.3348 58.9599 13.3774C58.9599 12.4199 58.744 11.5939 58.3122 10.8993C57.8992 10.186 57.3454 9.64153 56.6508 9.26607C55.975 8.87184 55.224 8.67472 54.398 8.67472C53.5908 8.67472 52.8399 8.87184 52.1453 9.26607C51.4694 9.64153 50.925 10.186 50.512 10.8993C50.099 11.5939 49.8925 12.4199 49.8925 13.3774C49.8925 14.3348 50.099 15.1702 50.512 15.8836C50.925 16.5782 51.4694 17.1226 52.1453 17.5168C52.8399 17.8923 53.5908 18.08 54.398 18.08Z" fill="#1B1819"/>
<path d="M70.2651 20.7552C68.9697 20.7552 67.8058 20.4548 66.7733 19.8541C65.7595 19.2346 64.9523 18.371 64.3515 17.2634C63.7508 16.1558 63.4504 14.8604 63.4504 13.3774C63.4504 11.8755 63.7602 10.5802 64.3797 9.49135C65.018 8.38374 65.8534 7.52957 66.8859 6.92883C67.9184 6.30932 69.026 5.99956 70.2087 5.99956C71.2976 5.99956 72.2362 6.21545 73.0247 6.64723C73.8319 7.07901 74.4514 7.67975 74.8832 8.44945V0.649244H77.7555V20.3609H74.8832V18.1363C74.5078 18.8309 73.9164 19.4411 73.1092 19.9667C72.3019 20.4924 71.3539 20.7552 70.2651 20.7552ZM70.7156 18.08C71.5604 18.08 72.3113 17.8829 72.9684 17.4887C73.6254 17.0757 74.1417 16.5125 74.5172 15.7991C74.8926 15.0857 75.0803 14.2785 75.0803 13.3774C75.0803 12.4575 74.8926 11.6502 74.5172 10.9556C74.1417 10.2423 73.6254 9.68847 72.9684 9.29423C72.3113 8.88123 71.5604 8.67472 70.7156 8.67472C69.8896 8.67472 69.1481 8.88123 68.491 9.29423C67.834 9.68847 67.3177 10.2423 66.9422 10.9556C66.5668 11.6502 66.379 12.4575 66.379 13.3774C66.379 14.2972 66.5668 15.1139 66.9422 15.8273C67.3177 16.5219 67.834 17.0757 68.491 17.4887C69.1481 17.8829 69.8896 18.08 70.7156 18.08Z" fill="#1B1819"/>
<path d="M81.0293 20.3609V6.3938H83.9016V20.3609H81.0293ZM80.8322 4.14103V0.930839H84.0987V4.14103H80.8322Z" fill="#1B1819"/>
<path d="M93.3711 26.4997C91.3436 26.4997 89.7667 26.0867 88.6403 25.2607C87.5327 24.4535 86.9789 23.3834 86.9789 22.0505C86.9789 21.7314 87.007 21.4404 87.0633 21.1776C87.1384 20.9147 87.2323 20.6801 87.3449 20.4736L90.0764 21.3184C90.0201 21.4686 89.9732 21.6187 89.9356 21.7689C89.9168 21.9379 89.9075 22.1162 89.9075 22.304C89.9075 22.8671 90.2078 23.3177 90.8086 23.6556C91.4281 23.9935 92.2823 24.1625 93.3711 24.1625C94.6289 24.1625 95.5957 23.8058 96.2715 23.0924C96.9474 22.379 97.2853 21.2527 97.2853 19.7133V17.7984C96.8723 18.4743 96.3091 19.0374 95.5957 19.488C94.8823 19.9198 94 20.1357 92.9487 20.1357C91.7284 20.1357 90.6115 19.8447 89.5977 19.2627C88.6027 18.6808 87.8049 17.8641 87.2041 16.8128C86.6222 15.7428 86.3312 14.4944 86.3312 13.0676C86.3312 11.6221 86.6316 10.3737 87.2323 9.32239C87.8518 8.25233 88.6591 7.4357 89.654 6.87251C90.6678 6.29054 91.766 5.99956 92.9487 5.99956C93.9437 5.99956 94.8072 6.19668 95.5394 6.59091C96.2903 6.96637 96.8723 7.49202 97.2853 8.16785V6.3938H100.186V19.4317C100.186 20.9523 99.9135 22.2382 99.3691 23.2895C98.8247 24.3408 98.0362 25.1387 97.0037 25.6831C95.9899 26.2275 94.7791 26.4997 93.3711 26.4997ZM93.2866 17.6013C94.0751 17.6013 94.7791 17.423 95.3986 17.0663C96.0369 16.7096 96.5437 16.1933 96.9192 15.5175C97.2947 14.8417 97.4824 14.025 97.4824 13.0676C97.4824 12.1102 97.2947 11.2936 96.9192 10.6177C96.5437 9.9419 96.0369 9.42564 95.3986 9.06896C94.7791 8.71227 94.0751 8.53392 93.2866 8.53392C92.4981 8.53392 91.7942 8.71227 91.1746 9.06896C90.5551 9.42564 90.0576 9.9419 89.6822 10.6177C89.3255 11.2936 89.1472 12.1102 89.1472 13.0676C89.1472 14.025 89.3255 14.8417 89.6822 15.5175C90.0576 16.1933 90.5551 16.7096 91.1746 17.0663C91.7942 17.423 92.4981 17.6013 93.2866 17.6013Z" fill="#1B1819"/>
<path d="M103.223 20.3609V6.3938H106.095V20.3609H103.223ZM103.025 4.14103V0.930839H106.292V4.14103H103.025Z" fill="#1B1819"/>
<path d="M113.449 20.7552C112.717 20.7552 112.041 20.6238 111.421 20.3609C110.802 20.0981 110.304 19.6663 109.929 19.0656C109.553 18.4461 109.366 17.6107 109.366 16.5594V0.930839H112.266V6.3938H115.448V8.70288H112.266V16.137C112.266 16.8504 112.426 17.376 112.745 17.7139C113.083 18.0331 113.543 18.1927 114.125 18.1927C114.35 18.1927 114.556 18.1739 114.744 18.1363C114.951 18.0988 115.12 18.0612 115.251 18.0237L115.533 20.4173C115.251 20.5111 114.932 20.5862 114.575 20.6425C114.219 20.7176 113.843 20.7552 113.449 20.7552Z" fill="#1B1819"/>
<path d="M123.187 20.7552C121.91 20.7552 120.765 20.4548 119.752 19.8541C118.738 19.2346 117.94 18.371 117.358 17.2634C116.776 16.1558 116.485 14.8604 116.485 13.3774C116.485 11.8755 116.785 10.5802 117.386 9.49135C118.006 8.38374 118.813 7.52957 119.808 6.92883C120.822 6.30932 121.91 5.99956 123.074 5.99956C124.201 5.99956 125.139 6.20607 125.89 6.61907C126.66 7.03208 127.27 7.60466 127.721 8.33681V6.3938H130.621V20.3609H127.721V18.249C127.308 18.9811 126.726 19.5819 125.975 20.0512C125.243 20.5205 124.313 20.7552 123.187 20.7552ZM123.666 18.08C124.51 18.08 125.252 17.8829 125.89 17.4887C126.529 17.0757 127.026 16.5125 127.383 15.7991C127.739 15.0857 127.918 14.2785 127.918 13.3774C127.918 12.4575 127.739 11.6502 127.383 10.9556C127.026 10.2423 126.529 9.68847 125.89 9.29423C125.252 8.88123 124.51 8.67472 123.666 8.67472C122.84 8.67472 122.098 8.88123 121.441 9.29423C120.803 9.68847 120.305 10.2423 119.949 10.9556C119.592 11.6502 119.414 12.4575 119.414 13.3774C119.414 14.2972 119.592 15.1139 119.949 15.8273C120.305 16.5219 120.803 17.0757 121.441 17.4887C122.098 17.8829 122.84 18.08 123.666 18.08Z" fill="#1B1819"/>
<path d="M133.871 20.3609V0.649244H136.744V20.3609H133.871Z" fill="#1B1819"/>
</svg>
