<svg width="42" height="40" viewBox="0 0 42 40" fill="none" xmlns="http://www.w3.org/2000/svg">
<path d="M18.9823 2.08822C19.8077 0.415918 22.1923 0.415915 23.0177 2.08822L27.5299 11.2311C27.8577 11.8951 28.4912 12.3554 29.224 12.4619L39.3137 13.928C41.1592 14.1962 41.8961 16.4641 40.5607 17.7658L33.2597 24.8825C32.7294 25.3994 32.4875 26.1442 32.6126 26.8741L34.3362 36.923C34.6514 38.7611 32.7222 40.1627 31.0715 39.2949L22.047 34.5504C21.3915 34.2058 20.6085 34.2058 19.953 34.5504L10.9285 39.2949C9.27781 40.1627 7.34858 38.7611 7.66383 36.923L9.38736 26.8741C9.51254 26.1442 9.27056 25.3994 8.74027 24.8825L1.43928 17.7658C0.103869 16.4641 0.840765 14.1962 2.68626 13.928L12.776 12.4619C13.5088 12.3554 14.1423 11.8951 14.4701 11.2311L18.9823 2.08822Z" fill="#DA9FFF"/>
</svg>
