<svg width="48" height="48" viewBox="0 0 48 48" fill="none" xmlns="http://www.w3.org/2000/svg">
<path d="M21.9823 4.08822C22.8077 2.41592 25.1923 2.41592 26.0177 4.08822L30.5299 13.2311C30.8577 13.8951 31.4912 14.3554 32.224 14.4619L42.3137 15.928C44.1592 16.1962 44.8961 18.4641 43.5607 19.7658L36.2597 26.8825C35.7294 27.3994 35.4875 28.1442 35.6126 28.8741L37.3362 38.923C37.6514 40.7611 35.7222 42.1627 34.0715 41.2949L25.047 36.5504C24.3915 36.2058 23.6085 36.2058 22.953 36.5504L13.9285 41.2949C12.2778 42.1627 10.3486 40.7611 10.6638 38.923L12.3874 28.8741C12.5125 28.1442 12.2706 27.3994 11.7403 26.8825L4.43928 19.7658C3.10387 18.4641 3.84077 16.1962 5.68626 15.928L15.776 14.4619C16.5088 14.3554 17.1423 13.8951 17.4701 13.2311L21.9823 4.08822Z" fill="#82E89D"/>
</svg>
