<svg width="4" height="11" viewBox="0 0 4 11" fill="none" xmlns="http://www.w3.org/2000/svg">
<path d="M3.3125 5.5C3.3125 5.75959 3.23552 6.01335 3.0913 6.22919C2.94708 6.44503 2.7421 6.61325 2.50227 6.71259C2.26244 6.81193 1.99854 6.83792 1.74394 6.78728C1.48934 6.73664 1.25548 6.61164 1.07192 6.42808C0.888367 6.24452 0.763363 6.01066 0.71272 5.75606C0.662077 5.50146 0.688069 5.23756 0.787409 4.99773C0.886749 4.7579 1.05498 4.55292 1.27081 4.4087C1.48665 4.26448 1.74041 4.1875 2 4.1875C2.3481 4.1875 2.68194 4.32578 2.92808 4.57192C3.17422 4.81807 3.3125 5.1519 3.3125 5.5ZM2 3.0625C2.25959 3.0625 2.51335 2.98552 2.72919 2.8413C2.94503 2.69709 3.11325 2.4921 3.21259 2.25227C3.31193 2.01244 3.33792 1.74854 3.28728 1.49394C3.23664 1.23934 3.11163 1.00548 2.92808 0.821923C2.74452 0.638367 2.51066 0.513363 2.25606 0.46272C2.00146 0.412077 1.73756 0.438069 1.49773 0.537409C1.2579 0.636749 1.05292 0.804975 0.908697 1.02081C0.764477 1.23665 0.687501 1.49041 0.687501 1.75C0.687501 2.0981 0.825782 2.43194 1.07192 2.67808C1.31806 2.92422 1.6519 3.0625 2 3.0625ZM2 7.9375C1.74041 7.9375 1.48665 8.01448 1.27081 8.1587C1.05498 8.30292 0.886749 8.5079 0.787409 8.74773C0.688069 8.98756 0.662077 9.25146 0.71272 9.50606C0.763363 9.76066 0.888367 9.99452 1.07192 10.1781C1.25548 10.3616 1.48934 10.4866 1.74394 10.5373C1.99854 10.5879 2.26244 10.5619 2.50227 10.4626C2.7421 10.3633 2.94708 10.195 3.0913 9.97919C3.23552 9.76335 3.3125 9.50959 3.3125 9.25C3.3125 8.90191 3.17422 8.56806 2.92808 8.32192C2.68194 8.07578 2.3481 7.9375 2 7.9375Z" fill="#5D5659"/>
</svg>
